{
  "accessors": [
    {
      "bufferView": 2,
      "componentType": 5126,
      "count": 16036,
      "max": [
        12.37339973449707,
        56.69029998779297,
        8.271300315856934
      ],
      "min": [
        -13.012399673461914,
        9.999999747378752e-05,
        -8.271300315856934
      ],
      "type": "VEC3"
    },
    {
      "bufferView": 2,
      "byteOffset": 192432,
      "componentType": 5126,
      "count": 16036,
      "max": [
        0.9999997019767761,
        1.0,
        1.0
      ],
      "min": [
        -0.999998152256012,
        -1.0,
        -1.0
      ],
      "type": "VEC3"
    },
    {
      "bufferView": 1,
      "componentType": 5126,
      "count": 16036,
      "max": [
        0.9886999726295471,
        0.9898999929428101
      ],
      "min": [
        0.008299999870359898,
        0.007899999618530273
      ],
      "type": "VEC2"
    },
    {
      "bufferView": 0,
      "componentType": 5125,
      "count": 87168,
      "type": "SCALAR"
    }
  ],
  "asset": {
    "extras": {
      "author": "ROY (https://sketchfab.com/roy.gearloft.in)",
      "license": "CC-BY-4.0 (http://creativecommons.org/licenses/by/4.0/)",
      "source": "https://sketchfab.com/3d-models/extinguisher-b926f529275c497a970dd8e95c2460a6",
      "title": "Extinguisher"
    },
    "generator": "Sketchfab-13.83.0",
    "version": "2.0"
  },
  "bufferViews": [
    {
      "buffer": 0,
      "byteLength": 348672,
      "name": "floatBufferViews",
      "target": 34963
    },
    {
      "buffer": 0,
      "byteLength": 128288,
      "byteOffset": 348672,
      "byteStride": 8,
      "name": "floatBufferViews",
      "target": 34962
    },
    {
      "buffer": 0,
      "byteLength": 384864,
      "byteOffset": 476960,
      "byteStride": 12,
      "name": "floatBufferViews",
      "target": 34962
    }
  ],
  "buffers": [
    {
      "byteLength": 861824,
      "uri": "scene.bin"
    }
  ],
  "images": [
    {
      "uri": "textures/12___Default_baseColor.jpeg"
    }
  ],
  "materials": [
    {
      "doubleSided": true,
      "name": "12___Default",
      "pbrMetallicRoughness": {
        "baseColorTexture": {
          "index": 0
        },
        "metallicFactor": 0.691057,
        "roughnessFactor": 0.361789
      }
    }
  ],
  "meshes": [
    {
      "name": "Object_0",
      "primitives": [
        {
          "attributes": {
            "NORMAL": 1,
            "POSITION": 0,
            "TEXCOORD_0": 2
          },
          "indices": 3,
          "material": 0,
          "mode": 4
        }
      ]
    }
  ],
  "nodes": [
    {
      "children": [
        1
      ],
      "matrix": [
        0.125,
        0.0,
        0.0,
        0.0,
        0.0,
        2.7755575615628914e-17,
        -0.125,
        0.0,
        0.0,
        0.125,
        2.7755575615628914e-17,
        0.0,
        0.0,
        0.0,
        0.0,
        1.0
      ],
      "name": "Sketchfab_model"
    },
    {
      "children": [
        2
      ],
      "name": "root"
    },
    {
      "children": [
        3
      ],
      "matrix": [
        1.0,
        0.0,
        0.0,
        0.0,
        0.0,
        2.220446049250313e-16,
        1.0,
        0.0,
        0.0,
        -1.0,
        2.220446049250313e-16,
        0.0,
        0.0,
        0.0,
        0.0,
        1.0
      ],
      "name": "GLTF_SceneRootNode"
    },
    {
      "children": [
        4
      ],
      "matrix": [
        0.08690487593412399,
        0.0,
        0.0,
        0.0,
        0.0,
        0.08690487593412399,
        0.0,
        0.0,
        0.0,
        0.0,
        0.08690487593412399,
        0.0,
        0.0,
        0.0,
        0.0,
        1.0
      ],
      "name": "10285_Fire Extinguisher_v3_iterations-2_0"
    },
    {
      "mesh": 0,
      "name": "Object_4"
    }
  ],
  "samplers": [
    {
      "magFilter": 9729,
      "minFilter": 9987,
      "wrapS": 10497,
      "wrapT": 10497
    }
  ],
  "scene": 0,
  "scenes": [
    {
      "name": "Sketchfab_Scene",
      "nodes": [
        0
      ]
    }
  ],
  "textures": [
    {
      "sampler": 0,
      "source": 0
    }
  ]
}
